<?xml version="1.0" standalone="no"?>
<!DOCTYPE svg PUBLIC "-//W3C//DTD SVG 20010904//EN"
 "http://www.w3.org/TR/2001/REC-SVG-20010904/DTD/svg10.dtd">
<svg version="1.0" xmlns="http://www.w3.org/2000/svg"
 width="200.000000pt" height="200.000000pt" viewBox="0 0 200.000000 200.000000"
 preserveAspectRatio="xMidYMid meet">
<metadata>
Created by potrace 1.11, written by Peter Selinger 2001-2013
</metadata>
<g transform="translate(0.000000,200.000000) scale(0.100000,-0.100000)"
fill="#000000" stroke="none">
<path d="M970 1990 c-1 -3 -4 -14 -6 -25 -2 -11 -7 -58 -10 -105 l-7 -85 28
-3 28 -2 -7 97 c-4 53 -11 104 -16 113 -5 8 -10 13 -10 10z"/>
<path d="M933 1740 c-13 -5 -23 -17 -24 -27 -1 -10 -2 -46 -3 -80 l-2 -63 57
0 c32 0 64 -3 73 -6 14 -5 16 5 16 78 0 81 -1 85 -25 96 -30 14 -61 14 -92 2z"/>
<path d="M907 1525 c-91 -23 -183 -105 -234 -210 -25 -49 -65 -166 -60 -171 2
-3 46 7 98 20 189 50 337 52 514 6 38 -10 79 -22 89 -26 17 -7 19 -4 13 27
-12 62 -93 212 -142 261 -82 83 -183 117 -278 93z"/>
<path d="M855 1160 c-22 -5 -56 -11 -75 -14 -135 -22 -307 -105 -311 -151 -1
-8 -2 -21 -3 -27 -4 -25 5 -27 27 -8 12 12 50 34 85 51 246 116 654 99 857
-37 l50 -33 3 25 c4 31 -25 65 -83 97 -42 24 -120 57 -145 62 -8 2 -33 8 -55
13 -96 25 -275 36 -350 22z"/>
<path d="M875 1053 c-40 -5 -176 -33 -195 -40 -8 -3 -20 -7 -27 -9 -24 -5
-121 -56 -140 -73 -16 -15 -20 -31 -18 -80 1 -34 4 -64 7 -67 3 -3 28 2 55 11
l49 16 0 57 c-1 51 1 57 19 57 17 0 20 -8 23 -53 3 -43 6 -53 18 -48 9 3 24 6
35 6 17 0 19 8 19 63 0 70 5 81 29 67 13 -7 17 -22 16 -65 -1 -52 1 -56 20
-51 11 3 27 6 36 6 14 0 16 10 14 60 -2 51 0 62 16 71 24 12 27 4 31 -71 3
-57 3 -57 58 -51 6 1 10 30 10 65 0 44 4 65 13 69 25 9 33 -8 33 -68 l-1 -60
38 -3 37 -3 0 60 c0 59 12 83 32 63 5 -5 10 -37 10 -70 l1 -60 33 -4 c38 -4
42 1 38 57 -4 46 11 71 32 54 9 -7 14 -32 14 -64 0 -55 8 -65 51 -65 16 0 19
7 19 50 0 43 3 50 20 50 23 0 22 1 24 -62 1 -26 4 -49 6 -51 3 -3 29 -11 58
-20 l52 -15 0 62 c0 52 -4 66 -22 84 -53 48 -185 97 -318 117 -46 7 -207 12
-245 8z"/>
<path d="M989 826 c-2 -2 -49 -6 -104 -9 -102 -7 -111 -8 -225 -32 -139 -30
-263 -86 -275 -126 -11 -34 9 -44 42 -22 58 40 182 79 333 104 134 21 397 16
516 -11 27 -7 56 -13 64 -15 82 -17 171 -52 223 -88 l28 -19 -3 33 c-2 25 -12
39 -36 55 -42 28 -195 85 -229 86 -2 0 -29 6 -60 13 -32 7 -96 16 -143 20 -47
3 -94 8 -106 10 -12 3 -23 3 -25 1z"/>
<path d="M978 725 c-1 -1 -43 -5 -93 -9 -184 -12 -363 -56 -437 -108 l-28 -19
0 -165 0 -164 -37 -1 c-95 -3 -105 -5 -124 -29 -10 -14 -19 -28 -19 -32 0 -5
44 -8 97 -8 l97 0 268 110 c147 60 272 110 277 110 9 0 199 -75 266 -106 17
-7 86 -36 155 -64 l124 -51 107 3 107 3 -23 27 c-19 23 -32 27 -94 31 -40 3
-75 8 -78 11 -4 3 -7 79 -8 169 -1 89 -3 165 -4 169 -3 14 -110 56 -196 77
-116 27 -133 30 -240 37 -49 3 -95 7 -102 9 -6 2 -13 2 -15 0z m20 -63 c9 -6
12 -37 10 -118 -3 -109 -3 -109 -28 -109 -25 0 -25 0 -28 104 -1 58 0 111 2
118 6 15 25 17 44 5z m144 -6 c10 -9 13 -42 13 -120 -2 -108 -10 -134 -39
-123 -13 5 -16 27 -16 126 0 86 3 121 13 124 6 3 13 6 14 6 1 1 8 -5 15 -13z
m-287 -121 c0 -109 -2 -120 -19 -123 -10 -2 -21 1 -25 6 -5 9 -7 183 -2 230 0
8 10 12 24 10 21 -3 22 -6 22 -123z m-140 -19 c0 -113 -9 -144 -39 -133 -13 5
-16 24 -16 120 0 63 3 117 7 121 4 4 16 6 27 4 19 -3 21 -10 21 -112z m580
-11 c0 -117 -1 -120 -22 -123 -26 -4 -25 -10 -27 123 -3 117 0 127 28 123 20
-3 21 -8 21 -123z m-730 -50 l0 -110 -25 0 c-25 0 -25 1 -28 99 -3 116 0 129
30 124 22 -3 23 -6 23 -113z m882 20 c3 -118 -2 -137 -30 -133 -21 3 -22 8
-25 102 -3 116 0 129 30 124 22 -3 23 -8 25 -93z"/>
<path d="M746 282 l-208 -87 221 -3 c121 -1 320 -1 440 0 l220 3 -213 88
c-117 48 -222 87 -232 86 -10 0 -113 -40 -228 -87z"/>
<path d="M224 150 c-8 -3 -33 -38 -55 -78 l-40 -72 871 0 871 0 -52 75 c-29
41 -60 75 -68 76 -69 4 -1515 3 -1527 -1z"/>
</g>
</svg>
